<svg xmlns="http://www.w3.org/2000/svg" version="1.1" xmlns:xlink="http://www.w3.org/1999/xlink" xmlns:svgjs="http://svgjs.com/svgjs" width="1440" height="560" preserveAspectRatio="none" viewBox="0 0 1440 560"><g mask="url(&quot;#SvgjsMask1031&quot;)" fill="none"><rect width="1440" height="560" x="0" y="0" fill="rgba(196, 198, 201, 1)"></rect><path d="M0,410.347C77.19,391.489,150.26,375.527,226.101,351.82C331.903,318.748,475.501,338.12,533.423,243.606C589.789,151.631,498.384,37.317,484.392,-69.645C470.16,-178.438,527.471,-312.17,450.491,-390.352C372.622,-469.436,236.914,-417.055,127.021,-432.595C36.308,-445.423,-52.257,-502.917,-139.099,-473.728C-225.294,-444.756,-257.981,-343.241,-324.207,-280.927C-400.455,-209.184,-522.924,-178.998,-557.397,-80.142C-592.613,20.845,-545.117,131.383,-502.139,229.319C-458.671,328.37,-412.082,446.188,-310.324,482.873C-208.325,519.645,-105.327,436.079,0,410.347" fill="#9b9ea3"></path><path d="M1440 1111.402C1545.402 1120.181 1654.124 1088.24 1738.454 1024.403 1819.971 962.6949999999999 1838.2559999999999 852.977 1894.3229999999999 767.482 1963.2930000000001 662.312 2114.051 589.771 2105.782 464.275 2097.642 340.725 1959.3780000000002 268.217 1856.853 198.79500000000002 1772.785 141.87099999999998 1666.298 146.098 1573.864 104.10199999999998 1460.106 52.418000000000006 1377.984-85.43100000000004 1253.443-75.35500000000002 1130.0819999999999-65.37400000000002 1038.531 49.73000000000002 970.229 152.94099999999997 906.748 248.86700000000002 893.571 365.546 885.723 480.307 878.367 587.868 872.548 701.148 926.35 794.576 978.3050000000001 884.796 1083.2640000000001 922.556 1171.874 977.212 1258.696 1030.7649999999999 1338.342 1102.935 1440 1111.402" fill="#eeeeef"></path></g><defs><mask id="SvgjsMask1031"><rect width="1440" height="560" fill="#ffffff"></rect></mask></defs></svg>